<?xml version="1.0" encoding="utf-8"?>
<svg viewBox="121.753 -9.268 490 490" width="490" height="490" xmlns="http://www.w3.org/2000/svg">
  <defs>
    <linearGradient id="Acala_new_logo_svg__paint0_linear" x1="462.5" y1="490" x2="101" y2="43.5" gradientUnits="userSpaceOnUse" gradientTransform="matrix(1, 0, 0, 1, 121.751949, -9.268724)">
      <stop stop-color="#5A81FF"/>
      <stop offset="0.524" stop-color="#E40C5B"/>
      <stop offset="1" stop-color="#FF4C3B"/>
    </linearGradient>
  </defs>
  <path fill-rule="evenodd" clip-rule="evenodd" d="M 366.753 480.732 C 502.063 480.732 611.753 371.042 611.753 235.732 C 611.753 100.422 502.063 -9.268 366.753 -9.268 C 231.443 -9.268 121.753 100.422 121.753 235.732 C 121.753 371.042 231.443 480.732 366.753 480.732 Z M 367.753 457.732 C 490.36 457.732 589.753 358.339 589.753 235.732 C 589.753 113.125 490.36 13.732 367.753 13.732 C 245.146 13.732 145.753 113.125 145.753 235.732 C 145.753 358.339 245.146 457.732 367.753 457.732 Z M 366.753 440.732 C 479.971 440.732 571.753 348.95 571.753 235.732 C 571.753 122.514 479.971 30.732 366.753 30.732 C 253.535 30.732 161.753 122.514 161.753 235.732 C 161.753 348.95 253.535 440.732 366.753 440.732 Z M 367.253 415.732 C 466.94 415.732 547.753 334.919 547.753 235.232 C 547.753 135.545 466.94 54.732 367.253 54.732 C 267.566 54.732 186.753 135.545 186.753 235.232 C 186.753 334.919 267.566 415.732 367.253 415.732 Z M 357.066 89.396 L 487.741 316.092 L 501.753 291.782 L 385.091 89.396 L 357.066 89.396 Z M 231.753 291.373 L 343.595 97.347 L 343.826 97.747 L 344.046 97.365 L 476.586 327.297 L 448.561 327.297 L 415.077 269.209 C 399.862 264.399 383.663 261.805 366.857 261.805 C 358.194 261.805 349.74 262.41 341.521 263.617 L 357.661 235.661 C 360.708 235.512 363.774 235.437 366.857 235.437 C 377.124 235.437 387.196 236.268 397.011 237.867 L 343.816 145.583 L 245.766 315.682 L 231.753 291.373 Z M 307.788 288.424 L 358.044 201.238 L 344.032 176.929 L 257.356 327.296 L 285.381 327.296 L 285.647 326.834 C 309.684 312.362 337.266 305.047 367.384 305.047 C 386.616 305.047 405.054 308.444 422.131 314.672 L 403.356 282.152 C 391.505 279.837 379.458 278.674 367.384 278.68 C 346.542 278.68 326.499 282.105 307.788 288.424 Z" fill="url(#Acala_new_logo_svg__paint0_linear)" transform="matrix(1, 0, 0, 1, -7.105427357601002e-15, 0)"/>
</svg>