<?xml version="1.0" encoding="utf-8"?>
<svg viewBox="553.8019 228.252 30.0148 30" width="30.0148" height="30" xmlns="http://www.w3.org/2000/svg">
  <path d="M 568.81 230.544 C 570.073 230.54 571.229 231.253 571.791 232.385 L 581.166 251.135 C 582.275 253.351 580.663 255.96 578.185 255.96 L 559.435 255.96 C 556.957 255.959 555.345 253.351 556.455 251.135 L 565.829 232.385 C 566.391 231.253 567.547 230.54 568.81 230.544 M 568.81 228.252 C 566.68 228.251 564.732 229.455 563.779 231.36 L 554.404 250.11 C 552.532 253.85 555.252 258.252 559.435 258.252 L 578.185 258.252 C 582.367 258.251 585.086 253.85 583.215 250.11 L 573.841 231.36 C 572.888 229.455 570.94 228.251 568.81 228.252 Z" fill="#78d64b" class="text-primary"/>
</svg>