<svg width="21" height="20" viewBox="0 0 21 20" fill="none" xmlns="http://www.w3.org/2000/svg"><path d="M18.3596 8.30907C18.3288 8.20846 18.3073 8.10526 18.2907 8.00104C18.283 7.95276 18.2741 7.90477 18.264 7.85707C18.2421 7.75343 18.2177 7.65037 18.1913 7.54789V7.5476C18.628 6.85898 20.7158 3.26743 18.3401 0.962198C15.7033 -1.59628 12.6224 1.7572 12.6224 1.7572L12.632 1.77209C11.2473 1.33383 9.74581 1.28237 8.28503 1.75706C8.28489 1.75706 8.28476 1.75706 8.28476 1.75706C8.26671 1.7374 5.19625 -1.58876 2.56724 0.962198C-0.0626062 3.51402 2.77721 7.64242 2.79206 7.66396C2.79206 7.66396 2.79206 7.6641 2.79206 7.66425C2.7618 7.76124 2.73738 7.86025 2.72128 7.96086C2.43679 9.7275 0.5 10.2727 0.5 13.35C0.5 16.4272 2.52616 18.9584 6.66175 18.9584H8.35872C8.35872 18.9584 8.35886 18.9584 8.359 18.9584C8.36663 18.9697 9.06524 20.0012 10.4999 20C11.8318 19.999 12.7114 18.9672 12.719 18.9584C12.719 18.9584 12.719 18.9584 12.7193 18.9584H14.3383C18.4738 18.9584 20.5 16.4866 20.5 13.35C20.5 10.4844 18.8204 9.81438 18.3598 8.30907H18.3596Z" fill="white"></path><path d="M18.3596 8.30907C18.3288 8.20846 18.3073 8.10526 18.2907 8.00104C18.283 7.95276 18.2741 7.90477 18.264 7.85707C18.2421 7.75343 18.2177 7.65037 18.1913 7.54789V7.5476C18.628 6.85898 20.7158 3.26743 18.3401 0.962198C15.7033 -1.59628 12.6224 1.7572 12.6224 1.7572L12.632 1.77209C11.2473 1.33383 9.74581 1.28237 8.28503 1.75706C8.28489 1.75706 8.28476 1.75706 8.28476 1.75706C8.26671 1.7374 5.19625 -1.58876 2.56724 0.962198C-0.0626062 3.51402 2.77721 7.64242 2.79206 7.66396C2.79206 7.66396 2.79206 7.6641 2.79206 7.66425C2.7618 7.76124 2.73738 7.86025 2.72128 7.96086C2.43679 9.7275 0.5 10.2727 0.5 13.35C0.5 16.4272 2.52616 18.9584 6.66175 18.9584H8.35872C8.35872 18.9584 8.35886 18.9584 8.359 18.9584C8.36663 18.9697 9.06524 20.0012 10.4999 20C11.8318 19.999 12.7114 18.9672 12.719 18.9584C12.719 18.9584 12.719 18.9584 12.7193 18.9584H14.3383C18.4738 18.9584 20.5 16.4866 20.5 13.35C20.5 10.4844 18.8204 9.81438 18.3598 8.30907H18.3596Z" fill="#DEB69A"></path></svg>