<?xml version="1.0" encoding="UTF-8"?>
<svg xmlns="http://www.w3.org/2000/svg" width="43" height="47" viewBox="0 0 43 47" fill="none">
  <path d="M21.4442 31.333H0V0H21.4442C28.8054 0 34.7701 5.96633 34.7701 13.3252V18.0034C34.7701 25.3667 28.8054 31.333 21.4442 31.333Z" fill="#AEDB01"></path>
  <path d="M26.9694 47.0002H0V31.3336C0 22.6822 7.01318 15.6671 15.6665 15.6671H26.9694C35.6228 15.6671 42.636 22.6822 42.636 31.3336C42.636 39.985 35.6228 47.0002 26.9694 47.0002Z" fill="#B0B1AC"></path>
  <path d="M34.7701 17.7473V18.0084C34.7701 25.3717 28.8054 31.3336 21.4398 31.3336H0C0 27.0079 1.75765 23.0913 4.58554 20.2539C7.42214 17.4165 11.3377 15.6671 15.6709 15.6671H26.9694C29.8104 15.6715 32.4729 16.4287 34.7701 17.7473Z" fill="#5D6D3C"></path>
</svg>
