<svg id="Layer_1" xmlns="http://www.w3.org/2000/svg" viewBox="0 0 50.9 58.7" width="2168" height="2500"><style>.st0{fill:#34c88a}.st1{fill:#163f59}</style><path class="st0" d="M0 3.5v22.4c0 .8.6 1.4 1.4 1.4h10c1 0 1.7-1.2 1.2-2.1l-1.3-2.3c-.6-1-1.8-1.3-2.8-.8l-.1.1c-1 .6-2.2.2-2.7-.7-.3-.5-.3-1.1-.2-1.7l2.1-6.3a2 2 0 0 1 2.3-1.4l6.4 1.3c.6.1 1.1.5 1.3 1 .6 1 .2 2.2-.7 2.8l-.1.1c-1 .6-1.3 1.8-.7 2.8l1.3 2.3c.5.9 1.8.9 2.3 0l5-8.7c.4-.7.2-1.5-.5-1.9L5.1.5C2.8-.9 0 .8 0 3.5zM49.2 26.4l-19-11.2c-.7-.4-1.5-.2-1.9.5l-5 8.8c-.5.9.1 2.1 1.2 2.1h3.3c.7 0 1.4-.6 1.4-1.4v-1.5c0-.8.6-1.4 1.4-1.4h.9c.4 0 .8.2 1 .5l5 5.7c.5.5.5 1.3 0 1.8l-5 5.7c-.3.3-.6.5-1 .5h-.9c-.7 0-1.4-.6-1.4-1.4v-1.5c0-.8-.6-1.4-1.4-1.4h-3.2c-1 0-1.7 1.1-1.2 2.1l4.9 8.8c.4.7 1.2.9 1.9.5l19.1-11.2c2.2-1.3 2.2-4.7-.1-6z"/><path class="st1" d="M5.1 58.3l19.1-11.2c.7-.4.9-1.2.5-1.9l-5-8.8c-.5-.9-1.8-.9-2.3 0l-1.6 2.9c-.4.7-.2 1.5.5 1.9l1.3.8c.6.4.9 1.2.5 1.9l-.5.8c-.2.3-.5.6-.9.7l-7.3 1.5c-.7.1-1.3-.3-1.6-.9l-2.4-7.2c-.1-.4-.1-.8.1-1.1l.5-.8c.4-.7 1.2-.9 1.9-.5L9 37c.6.4 1.5.2 1.9-.5l1.6-2.9c.5-.9-.1-2.1-1.2-2.1H1.4c-.8 0-1.4.6-1.4 1.4v22.4c0 2.6 2.8 4.3 5.1 3z"/></svg>