<?xml version="1.0" encoding="utf-8"?>
<svg viewBox="65.964 143.982 43.572 40.514" width="43.572" height="40.514" xmlns="http://www.w3.org/2000/svg">
  <defs>
    <radialGradient id="paint6_radial_1008_3443" cx="0" cy="0" r="1" gradientUnits="userSpaceOnUse" gradientTransform="matrix(-161.581934, 0.146653, -0.426118, -469.496816, 108.592702, 179.795237)">
      <stop offset="0.1042" stop-color="#24537E"/>
      <stop offset="0.5203" stop-color="#4FC1C0"/>
      <stop offset="1" stop-color="#DAFFF4"/>
    </radialGradient>
    <radialGradient id="paint7_radial_1008_3443" cx="0" cy="0" r="1" gradientUnits="userSpaceOnUse" gradientTransform="matrix(-161.581934, 0.146653, -0.426118, -469.496816, 108.592904, 179.794836)">
      <stop offset="0.1042" stop-color="#24537E"/>
      <stop offset="0.5203" stop-color="#4FC1C0"/>
      <stop offset="1" stop-color="#DAFFF4"/>
    </radialGradient>
    <linearGradient id="paint8_linear_1008_3443" x1="39.3688" y1="49.7049" x2="32.0274" y2="11.5183" gradientUnits="userSpaceOnUse" gradientTransform="matrix(1, 0, 0, 1, 57.894902, 135.013735)">
      <stop stop-color="#04171E"/>
      <stop offset="1" stop-color="#04171E" stop-opacity="0"/>
    </linearGradient>
    <radialGradient id="paint9_radial_1008_3443" cx="0" cy="0" r="1" gradientUnits="userSpaceOnUse" gradientTransform="matrix(17.263633, -27.140478, 393.279519, 250.158942, 73.919202, 176.517336)">
      <stop offset="0.1042" stop-color="#3A78B1"/>
      <stop offset="0.5203" stop-color="#4FC1C0"/>
      <stop offset="1" stop-color="#8CF2FD"/>
    </radialGradient>
    <radialGradient id="paint10_radial_1008_3443" cx="0" cy="0" r="1" gradientUnits="userSpaceOnUse" gradientTransform="matrix(-25.677596, 18.47366, -18.342551, -25.495359, 104.257302, 145.979235)">
      <stop offset="0.2165" stop-color="white"/>
      <stop offset="0.9063" stop-color="white" stop-opacity="0"/>
    </radialGradient>
    <linearGradient id="paint11_linear_1008_3443" x1="40.9419" y1="18.0981" x2="22.1117" y2="26.3007" gradientUnits="userSpaceOnUse" gradientTransform="matrix(1, 0, 0, 1, 57.894902, 135.013735)">
      <stop stop-color="white"/>
      <stop offset="0.7324" stop-color="white" stop-opacity="0"/>
    </linearGradient>
    <linearGradient id="paint12_linear_1008_3443" x1="40.9419" y1="18.0981" x2="22.1117" y2="26.3007" gradientUnits="userSpaceOnUse" gradientTransform="matrix(1, 0, 0, 1, 57.894902, 135.013735)">
      <stop stop-color="white"/>
      <stop offset="0.7324" stop-color="white" stop-opacity="0"/>
    </linearGradient>
    <linearGradient id="paint13_linear_1008_3443" x1="75.8941" y1="-20.9191" x2="-1.12022" y2="43.2445" gradientUnits="userSpaceOnUse" gradientTransform="matrix(1, 0, 0, 1, 57.894902, 135.013735)">
      <stop stop-color="#04171E"/>
      <stop offset="1" stop-color="#04171E" stop-opacity="0"/>
    </linearGradient>
    <linearGradient id="paint14_linear_1008_3443" x1="43.5096" y1="30.1523" x2="14.6222" y2="40.352" gradientUnits="userSpaceOnUse" gradientTransform="matrix(1, 0, 0, 1, 57.894902, 135.013735)">
      <stop stop-color="#0E6585"/>
      <stop offset="1" stop-color="#04171E"/>
    </linearGradient>
    <radialGradient id="paint15_radial_1008_3443" cx="0" cy="0" r="1" gradientUnits="userSpaceOnUse" gradientTransform="matrix(20.594391, -16.418642, 256.079756, 321.208459, 71.811702, 182.085734)">
      <stop offset="0.1042" stop-color="#3A78B1"/>
      <stop offset="0.5203" stop-color="#4FC1C0"/>
      <stop offset="1" stop-color="#8CF2FD"/>
    </radialGradient>
    <linearGradient id="paint16_linear_1008_3443" x1="50.0715" y1="28.2262" x2="38.9623" y2="45.0652" gradientUnits="userSpaceOnUse" gradientTransform="matrix(1, 0, 0, 1, 57.894902, 135.013735)">
      <stop stop-color="white" stop-opacity="0.64"/>
      <stop offset="1" stop-color="white" stop-opacity="0"/>
    </linearGradient>
    <linearGradient id="paint17_linear_1008_3443" x1="38.3589" y1="30.3422" x2="34.7474" y2="28.1096" gradientUnits="userSpaceOnUse" gradientTransform="matrix(1, 0, 0, 1, 57.894902, 135.013735)">
      <stop stop-color="#8CF2FD"/>
      <stop offset="1" stop-color="#8CF2FD" stop-opacity="0"/>
    </linearGradient>
  </defs>
  <path d="M 65.964 168.652 C 66.174 168.658 66.385 168.661 66.597 168.661 C 70.949 168.661 75.01 167.412 78.44 165.252 C 79.844 172.478 86.206 177.934 93.843 177.934 C 100.093 177.934 105.49 174.28 108.013 168.991 C 108.209 168.888 108.402 168.78 108.593 168.669 C 105.835 177.826 97.337 184.496 87.281 184.496 C 77.219 184.496 68.717 177.818 65.964 168.652 Z" fill="url(#paint6_radial_1008_3443)" transform="matrix(1, 0, 0, 1, -7.105427357601002e-15, 0)"/>
  <path d="M 65.964 168.652 C 66.174 168.658 66.385 168.661 66.597 168.661 C 70.949 168.661 75.01 167.412 78.44 165.252 C 79.844 172.478 86.206 177.934 93.843 177.934 C 100.093 177.934 105.49 174.28 108.013 168.991 C 108.209 168.888 108.402 168.78 108.593 168.669 C 105.835 177.826 97.337 184.496 87.281 184.496 C 77.219 184.496 68.717 177.818 65.964 168.652 Z" fill="#04171E" fill-opacity="0.88" transform="matrix(1, 0, 0, 1, -7.105427357601002e-15, 0)"/>
  <path d="M 66.071 168.997 C 66.246 169.001 66.421 169.003 66.597 169.003 C 70.976 169.003 75.059 167.739 78.502 165.555 C 80.023 172.63 86.314 177.933 93.843 177.933 C 100.093 177.933 105.49 174.279 108.014 168.991 C 108.209 168.887 108.402 168.78 108.593 168.669 C 105.835 177.826 97.337 184.495 87.281 184.495 C 77.346 184.495 68.931 177.985 66.071 168.997 Z" fill="url(#paint7_radial_1008_3443)" transform="matrix(1, 0, 0, 1, -7.105427357601002e-15, 0)"/>
  <path d="M 66.071 168.997 C 66.246 169.001 66.421 169.003 66.597 169.003 C 70.976 169.003 75.059 167.739 78.502 165.555 C 80.023 172.63 86.314 177.933 93.843 177.933 C 100.093 177.933 105.49 174.279 108.014 168.991 C 108.209 168.887 108.402 168.78 108.593 168.669 C 105.835 177.826 97.337 184.495 87.281 184.495 C 77.346 184.495 68.931 177.985 66.071 168.997 Z" fill="#04171E" fill-opacity="0.4" transform="matrix(1, 0, 0, 1, -7.105427357601002e-15, 0)"/>
  <path d="M 97.81 177.428 C 94.645 180.06 90.578 181.642 86.141 181.642 C 77.858 181.642 70.863 176.128 68.628 168.57 C 72.212 168.246 75.55 167.072 78.44 165.252 C 79.844 172.478 86.206 177.934 93.843 177.934 C 95.213 177.934 96.543 177.758 97.81 177.428 Z" fill="url(#paint8_linear_1008_3443)" fill-opacity="0.64" transform="matrix(1, 0, 0, 1, -7.105427357601002e-15, 0)"/>
  <path d="M 105.542 162.242 C 105.542 172.326 97.367 180.501 87.282 180.501 C 77.198 180.501 69.022 172.326 69.022 162.242 C 69.022 152.157 77.198 143.982 87.282 143.982 C 97.367 143.982 105.542 152.157 105.542 162.242 Z" fill="url(#paint9_radial_1008_3443)" transform="matrix(1, 0, 0, 1, -7.105427357601002e-15, 0)"/>
  <path d="M 104.327 158.813 C 104.327 165.904 98.579 171.652 91.489 171.652 C 84.398 171.652 78.65 165.904 78.65 158.813 C 78.65 151.722 84.398 145.974 91.489 145.974 C 98.579 145.974 104.327 151.722 104.327 158.813 Z" fill="url(#paint10_radial_1008_3443)" fill-opacity="0.6" transform="matrix(1, 0, 0, 1, -7.105427357601002e-15, 0)"/>
  <path d="M 88.479 145.997 C 88.193 145.982 87.904 145.974 87.614 145.974 C 84.883 145.974 82.311 146.661 80.064 147.873 C 81.266 147.608 82.515 147.468 83.796 147.468 C 85.102 147.468 86.374 147.613 87.597 147.888 L 88.479 145.997 Z" fill="url(#paint11_linear_1008_3443)" fill-opacity="0.64" transform="matrix(1, 0, 0, 1, -7.105427357601002e-15, 0)"/>
  <path d="M 89.536 148.445 C 96.249 150.811 101.06 157.209 101.06 164.732 C 101.06 167.824 100.247 170.727 98.822 173.238 C 101.741 170.349 103.55 166.341 103.55 161.91 C 103.55 154.116 97.954 147.628 90.561 146.246 L 89.536 148.445 Z" fill="url(#paint12_linear_1008_3443)" fill-opacity="0.64" transform="matrix(1, 0, 0, 1, -7.105427357601002e-15, 0)"/>
  <path d="M 97.04 177.678 C 94.217 179.466 90.871 180.501 87.282 180.501 C 81.595 180.501 76.515 177.901 73.166 173.825 C 74.089 173.994 75.041 174.083 76.013 174.083 C 83.071 174.083 89.041 169.423 91.013 163.011 C 91.664 163.069 92.323 163.098 92.988 163.098 C 97.548 163.098 101.788 161.726 105.318 159.373 C 105.465 160.308 105.542 161.266 105.542 162.242 C 105.542 162.848 105.512 163.447 105.454 164.037 C 104.429 169.577 101.351 174.396 97.04 177.678 Z" fill="url(#paint13_linear_1008_3443)" fill-opacity="0.64" transform="matrix(1, 0, 0, 1, -7.105427357601002e-15, 0)"/>
  <path d="M 65.97 168.669 C 68.728 177.826 77.226 184.496 87.282 184.496 C 99.525 184.496 109.459 174.609 109.536 162.384 C 108.314 162.376 107.116 162.27 105.949 162.073 C 103.206 163.282 100.173 163.953 96.983 163.953 C 95.876 163.953 94.789 163.873 93.726 163.717 C 91.756 170.132 85.784 174.795 78.723 174.795 C 73.8 174.795 69.406 172.528 66.529 168.98 C 66.34 168.88 66.154 168.776 65.97 168.669 Z" fill="url(#paint14_linear_1008_3443)" transform="matrix(1, 0, 0, 1, -7.105427357601002e-15, 0)"/>
  <path d="M 109.535 162.403 C 106.262 164.297 102.462 165.38 98.409 165.38 C 97.636 165.38 96.873 165.341 96.121 165.264 C 94.712 172.484 88.352 177.934 80.72 177.934 C 74.47 177.934 69.073 174.28 66.55 168.991 C 66.354 168.888 66.161 168.78 65.97 168.669 C 68.728 177.826 77.226 184.496 87.282 184.496 C 99.519 184.496 109.448 174.62 109.535 162.403 Z" fill="url(#paint15_radial_1008_3443)" transform="matrix(1, 0, 0, 1, -7.105427357601002e-15, 0)"/>
  <path d="M 107.913 163.254 C 106.572 163.889 105.158 164.393 103.687 164.75 C 103.497 166.375 103.13 168.005 102.575 169.615 C 101.224 173.541 98.923 176.87 96.018 179.434 C 100.985 177.043 105.032 172.746 106.969 167.122 C 107.41 165.841 107.722 164.547 107.913 163.254 Z" fill="url(#paint16_linear_1008_3443)" fill-opacity="0.64" transform="matrix(1, 0, 0, 1, -7.105427357601002e-15, 0)"/>
  <path opacity="0.2" fill-rule="evenodd" clip-rule="evenodd" d="M 93.717 163.755 C 93.742 163.722 93.789 163.715 93.821 163.741 C 94.564 164.33 95.367 164.85 96.227 165.291 C 96.264 165.31 96.279 165.356 96.261 165.394 C 96.243 165.432 96.198 165.448 96.161 165.429 C 95.292 164.983 94.481 164.458 93.73 163.863 C 93.698 163.837 93.691 163.789 93.717 163.755 Z" fill="url(#paint17_linear_1008_3443)" transform="matrix(1, 0, 0, 1, -7.105427357601002e-15, 0)"/>
</svg>