<?xml version="1.0" encoding="utf-8"?>
<svg viewBox="22.5901 33.3473 124.68 124.68" width="124.68" height="124.68" xmlns="http://www.w3.org/2000/svg">
  <defs>
    <style>.cls-1{fill:#1b1623;}.cls-2{fill:#a466ff;}.cls-3{fill:#a566ff;}</style>
  </defs>
  <path class="cls-3" d="M62.34,0a62.34,62.34,0,1,0,62.34,62.34A62.34,62.34,0,0,0,62.34,0ZM59.45,93a20.24,20.24,0,0,1-11.64,3.78C40.63,96.78,34,92.84,29,85.67a44.19,44.19,0,0,1-7.2-23.06.78.78,0,0,1,.46-.73l4.88-2.19a.75.75,0,0,1,1.06.69v0c0,8.21,2.17,15.89,6.11,21.62,3.69,5.36,8.47,8.31,13.47,8.31A13.81,13.81,0,0,0,55.39,88a.75.75,0,0,1,1,.18,34.79,34.79,0,0,0,3.13,3.71A.76.76,0,0,1,59.45,93ZM95.6,85.67C90.68,92.84,84,96.78,76.82,96.78S63,92.84,58.05,85.67C53.38,78.88,50.8,69.9,50.8,60.4c0-8.79,5.06-15.66,11.52-15.66S73.83,51.61,73.83,60.4a46.5,46.5,0,0,1-5.28,22.05.77.77,0,0,1-1.25.14,20.53,20.53,0,0,1-1.66-2.14A25.2,25.2,0,0,1,64,77.78a.75.75,0,0,1,0-.67A41.21,41.21,0,0,0,67.38,60.4c0-4.35-2.16-9.22-5.06-9.22s-5.07,4.87-5.07,9.22c0,8.21,2.17,15.89,6.11,21.62,3.69,5.36,8.47,8.31,13.46,8.31s9.78-3,13.47-8.31c3.94-5.73,6.11-13.41,6.11-21.62s-2.17-15.89-6.11-21.63a23.77,23.77,0,0,0-4-4.5A.76.76,0,0,1,86.49,33l4.86-2.19a.75.75,0,0,1,.85.16,30,30,0,0,1,3.4,4.15c4.67,6.8,7.25,15.77,7.25,25.28S100.27,78.88,95.6,85.67Z" transform="matrix(0.9999999999999999, 0, 0, 0.9999999999999999, 22.590090134592202, 33.34727527718655)"/>
</svg>