<?xml version="1.0" encoding="utf-8"?>
<svg viewBox="16.1178 19.8315 84.7501 84.751" width="84.7501" height="84.751" xmlns="http://www.w3.org/2000/svg">
  <defs>
    <clipPath id="clip0_12415_2952">
      <rect width="84.9631" height="84.9631" fill="white" transform="translate(139.018 32.0945)"/>
    </clipPath>
  </defs>
  <g clip-path="url(#clip0_12415_2952)" transform="matrix(0.9999999999999999, 0, 0, 0.9999999999999999, -123.11324493755761, -12.474922366066608)">
    <rect x="139.231" y="32.3064" width="84.751" height="84.751" rx="42.3755" fill="#B4F9BA"/>
    <path d="M173.064 53.6584L181.255 48.9278C181.488 48.7933 181.778 48.7933 182.011 48.9278L203.6 61.3923C203.833 61.5269 203.977 61.7759 203.979 62.0451L204.008 70.6179C204.008 70.8893 203.865 71.1405 203.629 71.2751L195.449 75.9989C194.947 76.2905 194.316 75.9272 194.314 75.3462L194.287 67.6526C194.287 67.3835 194.141 67.1345 193.908 66.9999L173.064 54.9683C172.559 54.6767 172.559 53.95 173.064 53.6584Z" fill="#010101"/>
    <path d="M167.772 92.4894L159.583 87.7611C159.347 87.6265 159.204 87.3775 159.204 87.1061V62.1771C159.204 61.908 159.347 61.659 159.581 61.5222L166.992 57.2088C167.227 57.072 167.516 57.072 167.75 57.2088L175.93 61.9326C176.432 62.2242 176.435 62.9487 175.932 63.2426L169.284 67.1118C169.051 67.2464 168.907 67.4953 168.907 67.7668V91.8367C168.907 92.4199 168.277 92.7832 167.772 92.4916V92.4894Z" fill="#010101"/>
    <path d="M204.008 77.6475V87.1041C204.008 87.3755 203.864 87.6244 203.629 87.759L182.04 100.224C181.807 100.358 181.519 100.358 181.286 100.224L173.846 95.9618C173.61 95.8272 173.465 95.576 173.465 95.3046V85.8592C173.465 85.2782 174.093 84.9149 174.597 85.202L181.273 89.0263C181.506 89.1609 181.793 89.1587 182.026 89.0263L202.871 76.9902C203.375 76.6986 204.006 77.062 204.006 77.6452L204.008 77.6475Z" fill="#010101"/>
  </g>
</svg>