<?xml version="1.0" encoding="utf-8"?>
<svg viewBox="317.081 130.6638 51.725 19.0492" width="51.725" height="19.0492" xmlns="http://www.w3.org/2000/svg">
  <defs>
    <linearGradient id="a" x1="16.6" x2="29.9" y1="9.6" y2="23.6" gradientUnits="userSpaceOnUse" gradientTransform="matrix(1, 0, 0, 1, 317.081334, 127.08803)">
      <stop offset="0.1" stop-color="#6978FF"/>
      <stop offset="0.2" stop-color="#6087FF"/>
      <stop offset="0.3" stop-color="#4DA5FF"/>
      <stop offset="0.5" stop-color="#40BAFF"/>
      <stop offset="0.7" stop-color="#39C7FF"/>
      <stop offset="0.8" stop-color="#36CBFF"/>
      <stop offset="1" stop-color="#67FFFC"/>
    </linearGradient>
    <linearGradient id="b" x1="13.6" x2="52.9" y1="33.4" y2="-9.7" gradientUnits="userSpaceOnUse" gradientTransform="matrix(1, 0, 0, 1, 317.081334, 127.08803)">
      <stop offset="0.4" stop-color="#6978FF"/>
      <stop offset="0.4" stop-color="#6284FF"/>
      <stop offset="0.6" stop-color="#4AABFF"/>
      <stop offset="0.8" stop-color="#3BC2FF"/>
      <stop offset="0.9" stop-color="#36CBFF"/>
      <stop offset="1" stop-color="#67FFFC"/>
    </linearGradient>
    <linearGradient id="c" x1="50.3" x2="19.5" y1="10.9" y2="41.4" gradientUnits="userSpaceOnUse" gradientTransform="matrix(1, 0, 0, 1, 317.081334, 127.08803)">
      <stop offset="0" stop-color="#6978FF"/>
      <stop offset="0.1" stop-color="#6087FF"/>
      <stop offset="0.3" stop-color="#4DA5FF"/>
      <stop offset="0.5" stop-color="#40BAFF"/>
      <stop offset="0.6" stop-color="#39C7FF"/>
      <stop offset="0.8" stop-color="#36CBFF"/>
      <stop offset="1" stop-color="#67FFFC"/>
    </linearGradient>
    <linearGradient id="d" x1="23.8" x2="28.4" y1="5.3" y2="11.8" gradientUnits="userSpaceOnUse" gradientTransform="matrix(1, 0, 0, 1, 317.081334, 127.08803)">
      <stop offset="0.1" stop-color="#6978FF"/>
      <stop offset="0.2" stop-color="#6087FF"/>
      <stop offset="0.3" stop-color="#4DA5FF"/>
      <stop offset="0.5" stop-color="#40BAFF"/>
      <stop offset="0.7" stop-color="#39C7FF"/>
      <stop offset="0.8" stop-color="#36CBFF"/>
      <stop offset="1" stop-color="#67FFFC"/>
    </linearGradient>
    <linearGradient id="e" x1="4.9" x2="23.4" y1="26.9" y2="3.7" gradientUnits="userSpaceOnUse" gradientTransform="matrix(1, 0, 0, 1, 317.081334, 127.08803)">
      <stop offset="0.3" stop-color="#6978FF"/>
      <stop offset="0.4" stop-color="#6087FF"/>
      <stop offset="0.5" stop-color="#4DA5FF"/>
      <stop offset="0.6" stop-color="#40BAFF"/>
      <stop offset="0.7" stop-color="#39C7FF"/>
      <stop offset="0.8" stop-color="#36CBFF"/>
      <stop offset="1" stop-color="#67FFFC"/>
    </linearGradient>
    <linearGradient id="f" x1="24.3" x2="4.4" y1="-8.5" y2="15.7" gradientUnits="userSpaceOnUse" gradientTransform="matrix(1, 0, 0, 1, 317.081334, 127.08803)">
      <stop offset="0" stop-color="#6978FF"/>
      <stop offset="0.1" stop-color="#6087FF"/>
      <stop offset="0.3" stop-color="#4DA5FF"/>
      <stop offset="0.5" stop-color="#40BAFF"/>
      <stop offset="0.6" stop-color="#39C7FF"/>
      <stop offset="0.8" stop-color="#36CBFF"/>
      <stop offset="1" stop-color="#67FFFC"/>
    </linearGradient>
  </defs>
  <path fill="url(#a)" d="M 338.881 141.388 C 338.081 142.088 338.081 143.288 338.881 143.988 L 344.281 148.988 C 345.081 149.788 346.281 149.788 347.081 148.988 C 347.781 148.388 347.781 147.188 347.081 146.488 L 341.581 141.488 C 340.817 140.789 339.646 140.789 338.881 141.488 L 338.881 141.388 Z" transform="matrix(1, 0, 0, 1, -7.105427357601002e-15, -7.105427357601002e-15)"/>
  <path fill="url(#b)" d="M 357.381 139.388 C 358.181 138.688 358.181 137.488 357.381 136.788 C 356.617 136.089 355.446 136.089 354.681 136.788 L 347.081 144.088 L 345.681 145.388 C 343.981 146.888 341.681 146.688 340.881 145.988 L 344.281 149.188 C 345.081 149.888 346.281 149.888 347.081 149.188 L 357.381 139.488 L 357.381 139.388 Z" transform="matrix(1, 0, 0, 1, -7.105427357601002e-15, -7.105427357601002e-15)"/>
  <path fill="url(#c)" d="M 368.381 136.788 C 367.617 136.089 366.446 136.089 365.681 136.788 L 360.081 142.088 C 359.381 142.788 359.381 143.888 360.081 144.588 C 360.881 145.288 362.081 145.288 362.781 144.588 L 368.281 139.588 C 368.981 138.788 368.981 137.588 368.281 136.888 L 368.381 136.788 Z" transform="matrix(1, 0, 0, 1, -7.105427357601002e-15, -7.105427357601002e-15)"/>
  <path fill="url(#d)" d="M 347.081 138.888 C 347.881 138.188 347.881 136.988 347.081 136.288 L 341.581 131.188 C 340.817 130.489 339.646 130.489 338.881 131.188 C 338.181 131.888 338.181 132.988 338.881 133.788 L 344.381 138.788 C 345.081 139.588 346.381 139.588 347.081 138.788 L 347.081 138.888 Z" transform="matrix(1, 0, 0, 1, -7.105427357601002e-15, -7.105427357601002e-15)"/>
  <path fill="url(#e)" d="M 328.481 140.888 C 327.781 141.588 327.781 142.788 328.481 143.488 C 329.281 144.188 330.481 144.188 331.281 143.488 L 338.881 136.288 L 340.281 135.088 C 341.981 133.588 344.281 133.788 344.981 134.488 L 341.581 131.288 C 340.817 130.589 339.646 130.589 338.881 131.288 L 328.481 140.988 L 328.481 140.888 Z" transform="matrix(1, 0, 0, 1, -7.105427357601002e-15, -7.105427357601002e-15)"/>
  <path fill="url(#f)" d="M 317.681 143.488 C 318.381 144.188 319.681 144.188 320.381 143.488 L 325.881 138.388 C 326.581 137.588 326.581 136.488 325.881 135.788 C 325.104 135.026 323.859 135.026 323.081 135.788 L 317.681 140.888 C 316.881 141.588 316.881 142.788 317.681 143.488 L 317.681 143.488 Z" transform="matrix(1, 0, 0, 1, -7.105427357601002e-15, -7.105427357601002e-15)"/>
</svg>