<?xml version="1.0" encoding="utf-8"?>
<svg viewBox="136.189 124.216 84.106 75.405" width="84.106" height="75.405" xmlns="http://www.w3.org/2000/svg">
  <path fill-rule="evenodd" clip-rule="evenodd" d="M 215.714 157.392 C 215.89 158.873 215.987 160.383 215.987 161.918 C 215.987 182.738 199.089 199.621 178.24 199.621 C 163.059 199.621 149.975 190.67 143.98 177.763 L 150.019 174.728 C 154.897 185.432 165.698 192.872 178.24 192.872 C 195.352 192.872 209.231 179.015 209.231 161.918 C 209.231 161.601 209.226 161.285 209.216 160.968 L 215.714 157.392 Z M 178.24 124.216 C 194.138 124.216 207.743 134.033 213.304 147.934 L 206.846 149.991 C 202.172 138.818 191.123 130.964 178.24 130.964 C 161.127 130.964 147.248 144.821 147.248 161.918 C 147.248 162.128 147.253 162.342 147.258 162.552 L 140.936 167.716 C 140.643 165.826 140.492 163.892 140.492 161.918 C 140.497 141.094 157.395 124.216 178.24 124.216 Z" fill="#010E35" transform="matrix(1, 0, 0, 1, 7.105427357601002e-15, 7.105427357601002e-15)"/>
  <path fill-rule="evenodd" clip-rule="evenodd" d="M 136.189 176.993 L 173.108 146.833 L 171.576 159.374 L 193.123 147.179 L 192.03 159.087 L 220.295 150.097 L 181.962 171.185 L 184.825 159.184 L 162.678 172.15 L 164.142 162.946 L 136.189 176.993 Z" fill="#010E35" transform="matrix(1, 0, 0, 1, 7.105427357601002e-15, 7.105427357601002e-15)"/>
</svg>