<?xml version="1.0" encoding="utf-8"?>
<svg viewBox="68.495 268.518 24.921 25" width="24.921" height="25" xmlns="http://www.w3.org/2000/svg">
  <path fill-rule="evenodd" clip-rule="evenodd" d="M 80.956 293.518 C 87.837 293.518 93.416 287.925 93.416 281.027 C 93.434 274.111 87.837 268.518 80.956 268.518 C 74.074 268.518 68.495 274.111 68.495 281.009 C 68.495 287.908 74.074 293.518 80.956 293.518 Z M 76.133 275.699 L 80.797 280.374 L 80.797 275.946 C 80.797 275.91 80.797 275.857 80.815 275.822 C 80.832 275.787 80.85 275.752 80.885 275.716 C 80.92 275.681 80.956 275.663 80.991 275.646 C 81.026 275.628 81.079 275.628 81.114 275.628 L 86.359 275.628 L 86.376 275.628 C 86.376 275.628 86.376 275.628 86.394 275.628 C 86.429 275.628 86.482 275.646 86.517 275.646 C 86.552 275.663 86.588 275.681 86.623 275.716 C 86.658 275.752 86.676 275.787 86.693 275.822 C 86.711 275.857 86.711 275.91 86.711 275.946 L 86.711 281.168 C 86.711 281.186 86.711 281.186 86.711 281.203 L 86.711 286.461 C 86.711 286.514 86.711 286.549 86.693 286.584 C 86.676 286.62 86.658 286.655 86.623 286.69 C 86.588 286.726 86.552 286.743 86.517 286.761 C 86.482 286.778 86.429 286.778 86.394 286.778 C 86.341 286.778 86.306 286.778 86.253 286.761 C 86.218 286.743 86.165 286.726 86.148 286.69 L 81.484 282.015 L 81.484 286.461 C 81.484 286.496 81.484 286.549 81.466 286.584 C 81.448 286.62 81.431 286.655 81.396 286.69 C 81.36 286.726 81.325 286.743 81.29 286.761 C 81.255 286.778 81.202 286.778 81.167 286.778 L 75.904 286.778 L 75.887 286.778 C 75.852 286.778 75.799 286.761 75.764 286.761 C 75.728 286.743 75.693 286.726 75.658 286.69 C 75.623 286.655 75.605 286.62 75.588 286.584 C 75.57 286.549 75.57 286.496 75.57 286.461 L 75.57 281.203 C 75.57 281.168 75.57 281.15 75.588 281.115 L 75.588 275.946 C 75.588 275.875 75.605 275.822 75.64 275.752 C 75.676 275.699 75.728 275.646 75.799 275.628 C 75.852 275.61 75.922 275.593 75.992 275.61 C 76.028 275.628 76.098 275.663 76.133 275.699 Z" fill="#DF42AB"/>
</svg>