<?xml version="1.0" encoding="utf-8"?>
<svg viewBox="124.13 50.175 283.579 366.606" width="283.579" height="366.606" xmlns="http://www.w3.org/2000/svg">
  <path d="M 407.709 134.455 L 407.709 251.791 C 407.709 261.919 400.656 270.125 391.964 270.125 L 344.695 270.125 L 155.637 270.125 L 130.43 270.125 C 130.43 279.45 133.862 288.333 139.859 294.53 L 171.293 327.046 C 181.385 337.472 187.152 352.435 187.152 368.153 L 187.152 380.124 C 187.152 400.368 173.046 416.781 155.645 416.781 C 138.254 416.781 124.13 400.358 124.13 380.114 L 124.13 270.125 L 124.13 233.458 C 124.13 213.214 138.237 196.802 155.637 196.802 L 260.447 196.802 C 273.948 196.802 286.801 203.521 295.78 215.26 L 323.716 251.84 C 329.04 258.81 336.675 262.807 344.695 262.807 L 344.695 123.489 L 155.637 123.489 C 138.237 123.489 124.13 107.076 124.13 86.831 C 124.13 66.587 138.237 50.175 155.637 50.175 L 260.447 50.175 C 273.948 50.175 323.716 105.213 323.716 105.213 C 329.04 112.183 336.675 116.181 344.695 116.181 L 391.964 116.181 C 400.656 116.113 407.709 124.338 407.709 134.455 Z" fill="#d49cff" style=""/>
</svg>