<?xml version="1.0" encoding="utf-8"?>
<svg viewBox="35.597 111.287 223.62 223.7872" width="223.62" height="223.7872" xmlns="http://www.w3.org/2000/svg">
  <path d="M 166.157 214.657 C 166.157 219.317 161.957 223.087 156.787 223.087 L 128.647 223.087 L 128.647 206.237 L 156.787 206.237 C 161.967 206.237 166.157 210.007 166.157 214.657 Z M 259.217 223.097 C 259.217 309.169 166.042 362.963 91.502 319.928 C 16.962 276.892 16.962 169.303 91.502 126.267 C 108.505 116.45 127.794 111.284 147.427 111.287 C 209.17 111.299 259.217 161.354 259.217 223.097 Z M 188.427 246.097 C 197.797 238.387 203.717 227.337 203.717 215.027 C 203.717 191.747 182.717 172.877 156.817 172.877 L 91.137 172.877 L 91.137 273.357 L 128.657 273.357 L 128.657 257.097 L 157.087 257.097 L 166.887 273.327 L 203.687 273.327 L 188.427 246.097 Z" class="cls-1" style="fill: rgb(33, 22, 229);" transform="matrix(1, 0, 0, 1, -7.105427357601002e-15, 0)"/>
</svg>