<?xml version="1.0" encoding="utf-8"?>
<svg viewBox="306.232 164.891 22 30.8" width="22" height="30.8" xmlns="http://www.w3.org/2000/svg">
  <defs>
    <linearGradient id="paint0_linear_2323_21371" x1="11.0002" y1="4.7666" x2="11.0002" y2="23.0999" gradientUnits="userSpaceOnUse" gradientTransform="matrix(1, 0, 0, 1, 306.231877, 164.891314)">
      <stop stop-color="white"/>
      <stop offset="0.4583" stop-color="white"/>
      <stop offset="1" stop-color="white"/>
    </linearGradient>
  </defs>
  <path fill-rule="evenodd" clip-rule="evenodd" d="M 306.232 167.261 L 306.232 186.263 C 306.232 186.618 306.312 186.968 306.467 187.288 C 306.621 187.608 306.846 187.889 307.124 188.111 L 316.117 195.302 C 316.433 195.554 316.827 195.691 317.232 195.691 C 317.637 195.691 318.03 195.554 318.347 195.302 L 327.34 188.111 C 327.618 187.889 327.843 187.608 327.997 187.288 C 328.151 186.968 328.232 186.618 328.232 186.263 L 328.232 167.261 C 328.232 166.632 327.981 166.03 327.535 165.585 C 327.089 165.141 326.484 164.891 325.853 164.891 L 308.61 164.891 C 307.979 164.891 307.375 165.141 306.928 165.585 C 306.482 166.03 306.232 166.632 306.232 167.261 Z" fill="#004DE5" transform="matrix(1, 0, 0, 1, -7.105427357601002e-15, 0)"/>
  <path d="M 323.645 175.87 L 323.645 171.729 C 323.645 171.179 323.429 170.653 323.044 170.264 C 322.659 169.876 322.137 169.658 321.592 169.658 L 312.868 169.658 C 312.324 169.658 311.802 169.876 311.417 170.264 C 311.032 170.653 310.815 171.179 310.815 171.729 L 310.815 183.745 C 310.816 184.056 310.885 184.362 311.018 184.641 C 311.151 184.921 311.345 185.167 311.585 185.361 L 314.762 187.933 C 314.799 187.964 314.845 187.984 314.893 187.989 C 314.941 187.995 314.99 187.987 315.034 187.966 C 315.078 187.945 315.115 187.912 315.141 187.87 C 315.167 187.829 315.18 187.781 315.18 187.732 L 315.18 179.235 C 315.18 179.166 315.207 179.101 315.255 179.052 C 315.303 179.004 315.368 178.976 315.437 178.976 L 317.746 178.976 C 318.154 178.976 318.546 179.14 318.834 179.431 C 319.123 179.722 319.285 180.117 319.285 180.529 L 319.285 187.732 C 319.285 187.78 319.299 187.828 319.325 187.869 C 319.351 187.911 319.387 187.944 319.431 187.965 C 319.474 187.986 319.523 187.994 319.571 187.989 C 319.619 187.983 319.665 187.964 319.702 187.933 L 322.879 185.361 C 323.119 185.167 323.313 184.921 323.446 184.641 C 323.579 184.362 323.648 184.056 323.649 183.745 L 323.649 180.012 C 323.649 179.462 323.432 178.936 323.047 178.547 C 322.662 178.159 322.14 177.941 321.596 177.941 C 322.14 177.94 322.661 177.721 323.045 177.333 C 323.429 176.945 323.645 176.419 323.645 175.87 Z M 317.743 176.906 L 315.434 176.906 C 315.366 176.906 315.301 176.878 315.253 176.83 C 315.204 176.781 315.177 176.715 315.177 176.647 L 315.177 171.987 C 315.177 171.919 315.204 171.853 315.253 171.804 C 315.301 171.756 315.366 171.729 315.434 171.729 L 319.026 171.729 C 319.094 171.729 319.16 171.756 319.208 171.804 C 319.256 171.853 319.283 171.919 319.283 171.987 L 319.283 175.352 C 319.283 175.764 319.121 176.159 318.832 176.451 C 318.543 176.742 318.152 176.906 317.743 176.906 Z" fill="url(#paint0_linear_2323_21371)" transform="matrix(1, 0, 0, 1, -7.105427357601002e-15, 0)"/>
</svg>