<?xml version="1.0" encoding="utf-8"?>
<svg viewBox="340.2107 192.524 26.3426 28.986" width="26.3426" height="28.986" xmlns="http://www.w3.org/2000/svg">
  <path d="M13.1791 8.46503C15.3943 8.46503 17.1902 6.68304 17.1902 4.48486C17.1902 2.28667 15.3943 0.504684 13.1791 0.504684C10.9638 0.504684 9.16797 2.28667 9.16797 4.48486C9.16797 6.68304 10.9638 8.46503 13.1791 8.46503Z" fill="#ff9100" transform="matrix(1, 0, 0, 1, 340.2223866615054, 192.01930522947464)"/>
  <path d="M24.3264 16.7859C22.408 15.6899 19.9519 16.3388 18.8474 18.2424C18.4696 18.8913 18.2952 19.6124 18.3097 20.319C18.3533 22.0784 16.7547 22.9869 15.2432 22.0784C15.1851 22.0495 15.127 22.0063 15.0543 21.9774C13.5284 21.1266 13.5284 19.324 15.0543 18.4876C16.3042 17.8098 17.1616 16.4975 17.1616 14.9833C17.1616 14.9544 17.1616 14.9256 17.1616 14.8968C17.118 13.1374 18.7166 12.2289 20.2281 13.1374C21.4343 13.8729 23.0039 13.9306 24.3118 13.1807C26.2302 12.0847 26.8842 9.64754 25.7797 7.74398C24.6752 5.84042 22.2191 5.19148 20.3007 6.28747C18.9928 7.03736 18.2661 8.42177 18.2952 9.8206C18.3388 11.5799 16.7401 12.4885 15.2432 11.5799C14.6329 11.205 13.9207 10.9887 13.1505 10.9887C12.3802 10.9887 11.6681 11.205 11.0577 11.5655C9.54632 12.4596 7.96222 11.5511 8.00582 9.80617C8.03489 8.39293 7.30824 7.02294 6.00027 6.27305C4.08191 5.17706 1.62584 5.84042 0.521333 7.74398C-0.583173 9.64754 0.0853439 12.0847 2.0037 13.1807C3.31167 13.9306 4.88123 13.8584 6.08747 13.1374C7.5989 12.2289 9.18299 13.1374 9.13939 14.8968C9.13939 14.9256 9.13939 14.9544 9.13939 14.9833C9.13939 16.4975 9.98231 17.8098 11.2467 18.4876C12.7726 19.3384 12.7726 21.141 11.2467 21.9774C11.1885 22.0063 11.1304 22.0495 11.0723 22.0784C9.56085 22.9725 7.97675 22.0639 8.02035 20.319C8.03489 19.6124 7.86049 18.8913 7.48263 18.228C6.37813 16.3244 3.92205 15.6755 2.0037 16.7715C0.0853439 17.8963 -0.56864 20.3334 0.535866 22.237C1.64037 24.1406 4.09645 24.7895 6.0148 23.6935C6.04387 23.6791 6.0584 23.6647 6.08747 23.6502C7.5989 22.7417 9.18299 23.6502 9.13939 25.4096C9.13939 25.4384 9.13939 25.4673 9.13939 25.5105C9.13939 27.7025 10.9415 29.4907 13.1505 29.4907C15.3595 29.4907 17.1616 27.7025 17.1616 25.5105C17.1616 25.4817 17.1616 25.4529 17.1616 25.424C17.118 23.6647 18.7166 22.7562 20.2281 23.6647C20.2571 23.6791 20.2862 23.6935 20.3153 23.7224C22.2336 24.8183 24.6897 24.1694 25.7942 22.2658C26.8987 20.319 26.2447 17.8819 24.3264 16.7859Z" fill="#ff9100" transform="matrix(1, 0, 0, 1, 340.2223866615054, 192.01930522947464)"/>
</svg>